<svg width="231" height="25" viewBox="0 0 231 25" fill="none" xmlns="http://www.w3.org/2000/svg">
<path d="M-0.000179529 1.6H18.0798V5.728H5.15182V10.336H11.3598C14.0692 10.336 16.1278 10.9013 17.5358 12.032C18.9652 13.1627 19.6798 14.7947 19.6798 16.928C19.6798 19.168 18.8905 20.9067 17.3118 22.144C15.7332 23.3813 13.5038 24 10.6238 24H-0.000179529V1.6ZM10.3358 20.16C11.6585 20.16 12.6718 19.904 13.3758 19.392C14.0798 18.8587 14.4318 18.0907 14.4318 17.088C14.4318 15.1253 13.0665 14.144 10.3358 14.144H5.15182V20.16H10.3358ZM32.2968 14.976H28.7128V24H23.5608V1.6H28.7128V10.656H32.4248L38.3128 1.6H43.7848L36.4568 12.416L44.0088 24H38.1208L32.2968 14.976ZM59.0026 5.344C59.5359 5.57867 59.9519 5.93067 60.2506 6.4C60.5492 6.86933 60.6986 7.424 60.6986 8.064C60.6986 8.98133 60.4106 9.728 59.8346 10.304C59.2586 10.8587 58.5226 11.136 57.6266 11.136C56.7306 11.136 55.9839 10.848 55.3866 10.272C54.8106 9.696 54.5226 8.96 54.5226 8.064C54.5226 7.63733 54.5759 7.21067 54.6826 6.784C54.7892 6.35733 55.0239 5.71733 55.3866 4.864L57.2426 0.255999H60.4106L59.0026 5.344ZM66.5546 5.344C67.0879 5.57867 67.5039 5.93067 67.8026 6.4C68.1012 6.86933 68.2506 7.424 68.2506 8.064C68.2506 8.98133 67.9626 9.728 67.3866 10.304C66.8106 10.8587 66.0746 11.136 65.1786 11.136C64.2826 11.136 63.5359 10.848 62.9386 10.272C62.3626 9.696 62.0746 8.96 62.0746 8.064C62.0746 7.63733 62.1279 7.21067 62.2346 6.784C62.3412 6.35733 62.5759 5.71733 62.9386 4.864L64.7946 0.255999H67.9626L66.5546 5.344ZM89.7316 1.6V24H84.6116V18.048H79.8756L75.9076 24H70.4356L75.1076 17.248C73.5929 16.6293 72.4302 15.7013 71.6196 14.464C70.8089 13.2053 70.4036 11.7013 70.4036 9.952C70.4036 8.224 70.7982 6.74133 71.5876 5.504C72.3769 4.24533 73.4969 3.28533 74.9476 2.624C76.3982 1.94133 78.1049 1.6 80.0676 1.6H89.7316ZM80.1956 5.824C78.7236 5.824 77.5929 6.16533 76.8036 6.848C76.0356 7.53067 75.6516 8.544 75.6516 9.888C75.6516 11.1893 76.0249 12.192 76.7716 12.896C77.5182 13.6 78.6169 13.952 80.0676 13.952H84.6116V5.824H80.1956ZM103.152 24.256C101.317 24.256 99.6636 23.8827 98.1916 23.136C96.7409 22.368 95.5996 21.312 94.7676 19.968C93.9569 18.624 93.5516 17.0987 93.5516 15.392C93.5516 13.6853 93.9569 12.16 94.7676 10.816C95.5996 9.472 96.7409 8.42667 98.1916 7.68C99.6636 6.912 101.317 6.528 103.152 6.528C104.965 6.528 106.544 6.912 107.888 7.68C109.253 8.42667 110.245 9.504 110.864 10.912L106.992 12.992C106.096 11.4133 104.805 10.624 103.12 10.624C101.818 10.624 100.741 11.0507 99.8876 11.904C99.0342 12.7573 98.6076 13.92 98.6076 15.392C98.6076 16.864 99.0342 18.0267 99.8876 18.88C100.741 19.7333 101.818 20.16 103.12 20.16C104.826 20.16 106.117 19.3707 106.992 17.792L110.864 19.904C110.245 21.2693 109.253 22.336 107.888 23.104C106.544 23.872 104.965 24.256 103.152 24.256ZM130.414 15.456C130.414 15.52 130.382 15.968 130.318 16.8H117.294C117.529 17.8667 118.084 18.7093 118.958 19.328C119.833 19.9467 120.921 20.256 122.222 20.256C123.118 20.256 123.908 20.128 124.59 19.872C125.294 19.5947 125.945 19.168 126.542 18.592L129.198 21.472C127.577 23.328 125.209 24.256 122.094 24.256C120.153 24.256 118.436 23.8827 116.942 23.136C115.449 22.368 114.297 21.312 113.486 19.968C112.676 18.624 112.27 17.0987 112.27 15.392C112.27 13.7067 112.665 12.192 113.454 10.848C114.265 9.48267 115.364 8.42667 116.75 7.68C118.158 6.912 119.726 6.528 121.454 6.528C123.14 6.528 124.665 6.89067 126.03 7.616C127.396 8.34133 128.462 9.38667 129.23 10.752C130.02 12.096 130.414 13.664 130.414 15.456ZM121.486 10.304C120.356 10.304 119.406 10.624 118.638 11.264C117.87 11.904 117.401 12.7787 117.23 13.888H125.71C125.54 12.8 125.07 11.936 124.302 11.296C123.534 10.6347 122.596 10.304 121.486 10.304ZM134.241 6.784H139.201V13.504H146.689V6.784H151.681V24H146.689V17.568H139.201V24H134.241V6.784ZM173.196 15.456C173.196 15.52 173.164 15.968 173.1 16.8H160.076C160.31 17.8667 160.865 18.7093 161.74 19.328C162.614 19.9467 163.702 20.256 165.004 20.256C165.9 20.256 166.689 20.128 167.372 19.872C168.076 19.5947 168.726 19.168 169.324 18.592L171.98 21.472C170.358 23.328 167.99 24.256 164.876 24.256C162.934 24.256 161.217 23.8827 159.724 23.136C158.23 22.368 157.078 21.312 156.268 19.968C155.457 18.624 155.052 17.0987 155.052 15.392C155.052 13.7067 155.446 12.192 156.236 10.848C157.046 9.48267 158.145 8.42667 159.532 7.68C160.94 6.912 162.508 6.528 164.236 6.528C165.921 6.528 167.446 6.89067 168.812 7.616C170.177 8.34133 171.244 9.38667 172.012 10.752C172.801 12.096 173.196 13.664 173.196 15.456ZM164.268 10.304C163.137 10.304 162.188 10.624 161.42 11.264C160.652 11.904 160.182 12.7787 160.012 13.888H168.492C168.321 12.8 167.852 11.936 167.084 11.296C166.316 10.6347 165.377 10.304 164.268 10.304ZM190.174 15.008C192.201 15.6907 193.214 17.056 193.214 19.104C193.214 20.6613 192.627 21.8667 191.454 22.72C190.281 23.5733 188.531 24 186.206 24H177.022V6.784H185.822C187.977 6.784 189.662 7.17867 190.878 7.968C192.094 8.736 192.702 9.824 192.702 11.232C192.702 12.0853 192.478 12.8427 192.03 13.504C191.603 14.144 190.985 14.6453 190.174 15.008ZM181.598 13.856H185.374C187.123 13.856 187.998 13.2373 187.998 12C187.998 10.784 187.123 10.176 185.374 10.176H181.598V13.856ZM185.79 20.608C187.625 20.608 188.542 19.9787 188.542 18.72C188.542 18.0587 188.329 17.5787 187.902 17.28C187.475 16.96 186.803 16.8 185.886 16.8H181.598V20.608H185.79ZM204.992 24.256C203.179 24.256 201.547 23.8827 200.096 23.136C198.667 22.368 197.547 21.312 196.736 19.968C195.926 18.624 195.52 17.0987 195.52 15.392C195.52 13.6853 195.926 12.16 196.736 10.816C197.547 9.472 198.667 8.42667 200.096 7.68C201.547 6.912 203.179 6.528 204.992 6.528C206.806 6.528 208.427 6.912 209.856 7.68C211.286 8.42667 212.406 9.472 213.216 10.816C214.027 12.16 214.432 13.6853 214.432 15.392C214.432 17.0987 214.027 18.624 213.216 19.968C212.406 21.312 211.286 22.368 209.856 23.136C208.427 23.8827 206.806 24.256 204.992 24.256ZM204.992 20.16C206.272 20.16 207.318 19.7333 208.128 18.88C208.96 18.0053 209.376 16.8427 209.376 15.392C209.376 13.9413 208.96 12.7893 208.128 11.936C207.318 11.0613 206.272 10.624 204.992 10.624C203.712 10.624 202.656 11.0613 201.824 11.936C200.992 12.7893 200.576 13.9413 200.576 15.392C200.576 16.8427 200.992 18.0053 201.824 18.88C202.656 19.7333 203.712 20.16 204.992 20.16ZM219.721 -1.90735e-06C220.617 -1.90735e-06 221.353 0.287998 221.929 0.863998C222.505 1.41867 222.793 2.15467 222.793 3.072C222.793 3.49867 222.74 3.92533 222.633 4.352C222.526 4.77867 222.302 5.41867 221.961 6.272L220.105 10.88H216.937L218.313 5.824C217.78 5.58933 217.364 5.23733 217.065 4.768C216.766 4.29867 216.617 3.73333 216.617 3.072C216.617 2.15467 216.905 1.41867 217.481 0.863998C218.078 0.287998 218.825 -1.90735e-06 219.721 -1.90735e-06ZM227.273 -1.90735e-06C228.169 -1.90735e-06 228.905 0.287998 229.481 0.863998C230.057 1.41867 230.345 2.15467 230.345 3.072C230.345 3.49867 230.292 3.92533 230.185 4.352C230.078 4.77867 229.854 5.41867 229.513 6.272L227.657 10.88H224.489L225.865 5.824C225.332 5.58933 224.916 5.23733 224.617 4.768C224.318 4.29867 224.169 3.73333 224.169 3.072C224.169 2.15467 224.457 1.41867 225.033 0.863998C225.63 0.287998 226.377 -1.90735e-06 227.273 -1.90735e-06Z" fill="white"/>
</svg>
