<svg width="234" height="54" viewBox="0 0 234 54" fill="none" xmlns="http://www.w3.org/2000/svg">
<path d="M2.77792 15.6489H20.8185V19.7679H7.91868V24.3658H14.1131C16.8165 24.3658 18.8707 24.9299 20.2756 26.0581C21.7019 27.1863 22.415 28.8148 22.415 30.9434C22.415 33.1785 21.6274 34.9134 20.0521 36.1481C18.4769 37.3827 16.2524 38 13.3787 38H2.77792V15.6489ZM13.0914 34.1684C14.4111 34.1684 15.4223 33.9129 16.1247 33.4021C16.8272 32.8699 17.1784 32.1036 17.1784 31.1031C17.1784 29.1447 15.8161 28.1655 13.0914 28.1655H7.91868V34.1684H13.0914ZM35.0044 28.9957H31.4282V38H26.2875V15.6489H31.4282V24.6851H35.1321L41.0073 15.6489H46.4673L39.1553 26.4413L46.6909 38H40.8157L35.0044 28.9957ZM61.6519 19.3847C62.184 19.6189 62.5991 19.9701 62.8971 20.4384C63.1952 20.9067 63.3442 21.4602 63.3442 22.0988C63.3442 23.0141 63.0568 23.7592 62.4821 24.3339C61.9073 24.8874 61.1729 25.1641 60.2789 25.1641C59.3848 25.1641 58.6398 24.8767 58.0438 24.302C57.469 23.7272 57.1816 22.9928 57.1816 22.0988C57.1816 21.6731 57.2349 21.2473 57.3413 20.8216C57.4477 20.3958 57.6819 19.7572 58.0438 18.9058L59.8957 14.3078H63.0568L61.6519 19.3847ZM69.1874 19.3847C69.7196 19.6189 70.1346 19.9701 70.4327 20.4384C70.7307 20.9067 70.8797 21.4602 70.8797 22.0988C70.8797 23.0141 70.5923 23.7592 70.0176 24.3339C69.4428 24.8874 68.7084 25.1641 67.8144 25.1641C66.9203 25.1641 66.1753 24.8767 65.5793 24.302C65.0045 23.7272 64.7172 22.9928 64.7172 22.0988C64.7172 21.6731 64.7704 21.2473 64.8768 20.8216C64.9832 20.3958 65.2174 19.7572 65.5793 18.9058L67.4312 14.3078H70.5923L69.1874 19.3847ZM92.3138 15.6489V38H87.205V32.061H82.4793L78.52 38H73.0599L77.7217 31.2627C76.2103 30.6454 75.0502 29.7194 74.2413 28.4848C73.4324 27.2289 73.028 25.7282 73.028 23.9827C73.028 22.2584 73.4218 20.779 74.2094 19.5444C74.997 18.2885 76.1146 17.3306 77.5621 16.6707C79.0096 15.9895 80.7125 15.6489 82.6709 15.6489H92.3138ZM82.7986 19.8637C81.3298 19.8637 80.2016 20.2043 79.414 20.8854C78.6477 21.5666 78.2645 22.5777 78.2645 23.9188C78.2645 25.2173 78.637 26.2178 79.3821 26.9202C80.1271 27.6227 81.2234 27.9739 82.6709 27.9739H87.205V19.8637H82.7986ZM105.704 38.2554C103.874 38.2554 102.224 37.8829 100.755 37.1379C99.3078 36.3716 98.169 35.3179 97.3388 33.9768C96.5299 32.6357 96.1254 31.1137 96.1254 29.4108C96.1254 27.7079 96.5299 26.1858 97.3388 24.8448C98.169 23.5037 99.3078 22.4607 100.755 21.7156C102.224 20.9493 103.874 20.5661 105.704 20.5661C107.514 20.5661 109.089 20.9493 110.43 21.7156C111.793 22.4607 112.782 23.5356 113.4 24.9406L109.536 27.016C108.642 25.4408 107.354 24.6532 105.673 24.6532C104.374 24.6532 103.299 25.0789 102.448 25.9304C101.596 26.7819 101.17 27.942 101.17 29.4108C101.17 30.8796 101.596 32.0397 102.448 32.8912C103.299 33.7426 104.374 34.1684 105.673 34.1684C107.376 34.1684 108.663 33.3808 109.536 31.8056L113.4 33.9129C112.782 35.2753 111.793 36.3396 110.43 37.106C109.089 37.8723 107.514 38.2554 105.704 38.2554ZM132.908 29.4747C132.908 29.5385 132.876 29.9855 132.812 30.8157H119.816C120.051 31.8801 120.604 32.7209 121.477 33.3382C122.349 33.9555 123.435 34.2642 124.734 34.2642C125.628 34.2642 126.415 34.1365 127.096 33.881C127.799 33.6043 128.448 33.1785 129.044 32.6038L131.694 35.4775C130.077 37.3295 127.714 38.2554 124.606 38.2554C122.669 38.2554 120.955 37.8829 119.465 37.1379C117.975 36.3716 116.826 35.3179 116.017 33.9768C115.208 32.6357 114.803 31.1137 114.803 29.4108C114.803 27.7291 115.197 26.2178 115.985 24.8767C116.794 23.5144 117.89 22.4607 119.274 21.7156C120.678 20.9493 122.243 20.5661 123.967 20.5661C125.649 20.5661 127.171 20.928 128.533 21.6518C129.896 22.3755 130.96 23.4186 131.726 24.7809C132.514 26.122 132.908 27.6866 132.908 29.4747ZM123.999 24.3339C122.871 24.3339 121.924 24.6532 121.157 25.2918C120.391 25.9304 119.923 26.8032 119.753 27.9101H128.214C128.044 26.8244 127.575 25.9623 126.809 25.3237C126.043 24.6638 125.106 24.3339 123.999 24.3339ZM136.726 20.8216H141.675V27.5269H149.147V20.8216H154.128V38H149.147V31.582H141.675V38H136.726V20.8216ZM175.596 29.4747C175.596 29.5385 175.564 29.9855 175.5 30.8157H162.504C162.738 31.8801 163.292 32.7209 164.165 33.3382C165.037 33.9555 166.123 34.2642 167.421 34.2642C168.316 34.2642 169.103 34.1365 169.784 33.881C170.487 33.6043 171.136 33.1785 171.732 32.6038L174.382 35.4775C172.764 37.3295 170.402 38.2554 167.294 38.2554C165.357 38.2554 163.643 37.8829 162.153 37.1379C160.663 36.3716 159.513 35.3179 158.705 33.9768C157.896 32.6357 157.491 31.1137 157.491 29.4108C157.491 27.7291 157.885 26.2178 158.673 24.8767C159.482 23.5144 160.578 22.4607 161.961 21.7156C163.366 20.9493 164.931 20.5661 166.655 20.5661C168.337 20.5661 169.859 20.928 171.221 21.6518C172.584 22.3755 173.648 23.4186 174.414 24.7809C175.202 26.122 175.596 27.6866 175.596 29.4747ZM166.687 24.3339C165.559 24.3339 164.612 24.6532 163.845 25.2918C163.079 25.9304 162.611 26.8032 162.44 27.9101H170.902C170.732 26.8244 170.263 25.9623 169.497 25.3237C168.731 24.6638 167.794 24.3339 166.687 24.3339ZM192.537 29.0276C194.559 29.7088 195.57 31.0712 195.57 33.1147C195.57 34.6686 194.985 35.8713 193.814 36.7228C192.643 37.5743 190.898 38 188.578 38H179.414V20.8216H188.195C190.344 20.8216 192.026 21.2154 193.239 22.003C194.453 22.7693 195.059 23.8549 195.059 25.2599C195.059 26.1113 194.836 26.867 194.389 27.5269C193.963 28.1655 193.346 28.6658 192.537 29.0276ZM183.98 27.8781H187.747C189.493 27.8781 190.366 27.2608 190.366 26.0262C190.366 24.8129 189.493 24.2062 187.747 24.2062H183.98V27.8781ZM188.163 34.6154C189.993 34.6154 190.909 33.9874 190.909 32.7315C190.909 32.0716 190.696 31.5927 190.27 31.2947C189.844 30.9754 189.174 30.8157 188.258 30.8157H183.98V34.6154H188.163ZM207.323 38.2554C205.514 38.2554 203.885 37.8829 202.438 37.1379C201.011 36.3716 199.894 35.3179 199.085 33.9768C198.276 32.6357 197.872 31.1137 197.872 29.4108C197.872 27.7079 198.276 26.1858 199.085 24.8448C199.894 23.5037 201.011 22.4607 202.438 21.7156C203.885 20.9493 205.514 20.5661 207.323 20.5661C209.132 20.5661 210.75 20.9493 212.176 21.7156C213.603 22.4607 214.72 23.5037 215.529 24.8448C216.338 26.1858 216.742 27.7079 216.742 29.4108C216.742 31.1137 216.338 32.6357 215.529 33.9768C214.72 35.3179 213.603 36.3716 212.176 37.1379C210.75 37.8829 209.132 38.2554 207.323 38.2554ZM207.323 34.1684C208.6 34.1684 209.643 33.7426 210.452 32.8912C211.282 32.0184 211.697 30.8583 211.697 29.4108C211.697 27.9633 211.282 26.8138 210.452 25.9623C209.643 25.0896 208.6 24.6532 207.323 24.6532C206.046 24.6532 204.992 25.0896 204.162 25.9623C203.332 26.8138 202.917 27.9633 202.917 29.4108C202.917 30.8583 203.332 32.0184 204.162 32.8912C204.992 33.7426 206.046 34.1684 207.323 34.1684ZM222.02 14.0524C222.914 14.0524 223.648 14.3398 224.223 14.9145C224.797 15.468 225.085 16.2024 225.085 17.1177C225.085 17.5434 225.032 17.9692 224.925 18.3949C224.819 18.8206 224.595 19.4592 224.255 20.3107L222.403 24.9086H219.242L220.615 19.8637C220.082 19.6295 219.667 19.2783 219.369 18.81C219.071 18.3417 218.922 17.7776 218.922 17.1177C218.922 16.2024 219.21 15.468 219.784 14.9145C220.38 14.3398 221.125 14.0524 222.02 14.0524ZM229.555 14.0524C230.449 14.0524 231.183 14.3398 231.758 14.9145C232.333 15.468 232.62 16.2024 232.62 17.1177C232.62 17.5434 232.567 17.9692 232.461 18.3949C232.354 18.8206 232.131 19.4592 231.79 20.3107L229.938 24.9086H226.777L228.15 19.8637C227.618 19.6295 227.203 19.2783 226.905 18.81C226.607 18.3417 226.458 17.7776 226.458 17.1177C226.458 16.2024 226.745 15.468 227.32 14.9145C227.916 14.3398 228.661 14.0524 229.555 14.0524Z" fill="black"/>
</svg>
